# xmcd
# Copyright (C) 1995-1998 Ti Kan
#
# Track frame offsets:
#       150
#       11005
#       23212
#       37762
#       54925
#       66452
#       77505
#       88695
#       107342
#       118762
#       129562
#       141985
#       155180
#       168685
#       184615
#       196490
#
# Disc length: 2780 seconds
#
# Revision: 0
# Processed by: cddbd v1.4PL0 Copyright (c) Steve Scherf et al.
# Submitted via: CD-Transfer v1.0
#
DISCID=d70ada10
DTITLE=Rubbernecks - Cherokee Chief
DYEAR=1998
DGENRE=
TTITLE0=Cherokee Boogie
TTITLE1=Just Because
TTITLE2=Johnny Come Lately
TTITLE3=Lucky Bird
TTITLE4=Mamou Brew
TTITLE5=Honky Tonk Song
TTITLE6=Darkness To Light
TTITLE7=Run Around Sue
TTITLE8=Great Balls Of Fire
TTITLE9=Setting The Woods On Fire
TTITLE10=Johnny B. Goode
TTITLE11=High Cotton
TTITLE12=Cruisin'
TTITLE13=Betty, Betty
TTITLE14=The Wanderer
TTITLE15=Blue Ridge Mountain
EXTD=
EXTT0=
EXTT1=
EXTT2=
EXTT3=
EXTT4=
EXTT5=
EXTT6=
EXTT7=
EXTT8=
EXTT9=
EXTT10=
EXTT11=
EXTT12=
EXTT13=
EXTT14=
EXTT15=
PLAYORDER=
